<?xml version="1.0" encoding="UTF-8"?>
<svg width="912px" height="865px" viewBox="0 0 912 865" version="1.1" xmlns="http://www.w3.org/2000/svg" xmlns:xlink="http://www.w3.org/1999/xlink">
    <title>shape / 2 / line-centre</title>
    <g id="Footer" stroke="none" stroke-width="1" fill="none" fill-rule="evenodd" opacity="0.5">
        <g id="Footer-1.2" transform="translate(-5400.000000, -1301.000000)" fill="#020101">
            <g id="Content" transform="translate(1495.000000, 1067.000000)">
                <g id="HF" transform="translate(3649.000000, 0.000000)">
                    <g id="Group" transform="translate(227.000000, 202.000000)">
                        <g id="shape-/-2-/-line-centre" transform="translate(486.500000, 486.500000) rotate(-45.000000) translate(-486.500000, -486.500000) ">
                            <path d="M728.280319,90.1770885 C785.564787,134.394406 821.823374,185.872876 839.447185,243.150619 C864.335575,324.038396 851.248832,410.559347 814.318559,494.515896 C806.074208,513.258439 797.240745,530.359094 788.405257,545.475775 C785.826561,549.887678 783.400513,553.86567 781.169555,557.384963 L777.434637,563.11495 L778.037141,563.7607 C816.628959,606.143271 825.962918,683.699639 802.819343,760.895256 L801.836223,764.111436 C774.995289,850.259627 713.380282,920.412851 628.401309,951.199509 C543.81034,981.842703 466.7245,979.308783 398.582334,949.07948 C343.081467,924.458123 295.820901,882.259255 260.8356,831.454009 C250.589437,816.574798 242.377442,800.814423 236.073443,784.285134 C215.938259,731.490035 216.070618,675.232389 228.36129,622.447462 C229.914391,615.777338 231.563141,609.675318 233.226409,604.211129 L234.058878,601.532509 C234.569991,599.921828 235.054107,598.458904 235.504439,597.149581 L236.263065,594.994032 L234.229446,592.713308 C233.660089,592.064276 233.053326,591.364849 232.410783,590.615579 C228.74547,586.341452 224.663978,581.323056 220.270412,575.595725 C207.725482,559.242504 195.183362,540.479103 183.477501,519.587423 C134.38645,431.973661 114.872985,336.359881 142.071755,238.584883 C169.664156,139.391711 254.748355,54.8362479 363.435936,18.7790495 C482.243941,-20.6356087 613.328678,1.45155552 728.280319,90.1770885 Z M364.605558,22.304653 C257.057739,57.9837346 172.900444,141.618052 145.650428,239.580372 C118.748652,336.287723 138.066293,430.941986 186.718038,517.77171 C198.332527,538.500315 210.776496,557.116881 223.217654,573.334828 C226.947567,578.197038 230.44783,582.540227 233.652881,586.341899 L236.737246,589.939956 C237.892538,591.263985 238.793623,592.266823 239.415078,592.939758 L239.754192,593.303862 L238.400802,594.576456 L240.133137,595.24776 L239.444848,597.131335 L238.564519,599.692042 C238.256282,600.613405 237.933921,601.601981 237.599443,602.656027 C235.684543,608.690495 233.768285,615.605652 231.979065,623.289841 C219.84171,675.416312 219.711035,730.958405 239.544148,782.961464 C245.744153,799.218075 253.819036,814.715309 263.894947,829.347284 C298.513948,879.620593 345.261904,921.361753 400.088622,945.684042 C467.351528,975.523287 543.444231,978.024562 627.136107,947.707066 C710.964779,917.337145 771.778744,848.095966 798.289817,763.006492 C822.305357,685.926639 813.418792,608.176777 775.325722,566.300173 L773.721618,564.576173 L772.674354,563.475893 L774.559795,560.74178 C775.131442,559.888078 775.860502,558.780711 776.733288,557.42772 C779.285823,553.470786 782.131946,548.847629 785.198315,543.601363 C793.965123,528.602189 802.733956,511.626648 810.918415,493.020262 C847.522336,409.805637 860.479945,324.138434 835.896892,244.24301 C818.501776,187.708527 782.695236,136.871856 726.010643,93.1175762 C612.038614,5.14815757 482.243251,-16.7217531 364.605558,22.304653 Z M720.704109,103.494276 C776.25529,146.297419 811.376238,196.177488 828.39634,251.705864 C852.323733,329.769396 839.695742,413.263464 804.112856,494.298741 C796.18317,512.357543 787.687749,528.840746 779.183605,543.428992 C776.201589,548.544426 773.429381,553.060478 770.9316,556.945081 L768.572065,560.534707 L769.167804,561.180037 C806.397025,602.214733 815.361187,677.105315 792.993504,751.629598 L792.015697,754.823172 C766.035165,838.031921 706.473926,905.768688 624.378343,935.462092 C542.704223,965.020621 468.263862,962.547318 402.461364,933.331509 C348.852071,909.529391 303.203431,868.744276 269.433751,819.655082 C259.534008,805.27412 251.601539,790.04052 245.514236,774.063024 C226.09259,723.086543 226.227454,668.770644 238.094276,617.79735 C239.592856,611.360283 241.18363,605.470355 242.789064,600.192791 L243.592644,597.60534 C244.086223,596.048754 244.553829,594.634472 244.989382,593.366778 L245.692792,591.35427 L243.622489,588.984807 C240.770042,585.653896 236.159567,580.089448 231.967602,574.723503 L230.27237,572.533578 C218.160719,556.732525 206.060755,538.622322 194.766144,518.460789 C147.368333,433.852953 128.522759,341.545958 154.764623,247.154551 C181.380816,151.336887 263.504593,69.6507322 368.441143,34.7805802 C483.130858,-3.33052398 609.698857,17.9200616 720.704109,103.494276 Z M369.612501,38.3056075 C265.815385,72.7971284 184.617962,153.561866 158.343552,248.149119 C132.398351,341.473434 151.048109,432.821307 198.006829,516.645338 C209.210248,536.644091 221.212312,554.607764 233.220486,570.273821 L236.571789,574.56415 C241.732027,581.063348 247.192455,587.514936 248.90862,589.406117 L249.382414,589.902104 L247.849226,590.880602 L249.615556,591.467301 L248.91611,593.386367 L248.065147,595.864269 C247.767438,596.754985 247.456273,597.710022 247.133451,598.728097 C245.285764,604.555096 243.437746,611.227099 241.712082,618.639593 C229.998453,668.954858 229.865364,722.55572 248.985393,772.74054 C254.968718,788.445121 262.764038,803.415338 272.493756,817.549313 C305.897564,866.106658 351.033539,906.433729 403.968705,929.936539 C468.892114,958.762039 542.339339,961.202345 623.114586,931.969126 C704.060146,902.691677 762.819904,835.866404 788.469962,753.716076 C811.700525,679.314748 803.181797,604.241748 766.45258,563.715468 L764.861209,561.999881 L763.855028,560.940152 L764.573744,559.829959 L766.703507,556.633452 C767.082559,556.055507 767.465111,555.46812 767.807195,554.936104 L770.36556,550.887232 C772.12902,548.049583 774.005053,544.936731 775.974511,541.558267 C784.410413,527.087085 792.841606,510.728501 800.711748,492.805302 C835.969551,412.510357 848.468761,329.867771 824.844873,252.79443 C808.053365,198.011847 773.38588,148.775803 718.436574,106.436415 C608.410926,21.6173795 483.132271,0.58327291 369.612501,38.3056075 Z M713.127804,116.807653 C766.94607,158.196278 800.929432,206.478053 817.345646,260.257439 C840.312762,335.497525 828.143273,415.965751 793.907027,494.079972 C786.291878,511.454874 778.134301,527.320516 769.961653,541.379541 C767.570223,545.493407 765.317513,549.208744 763.236205,552.512713 L761.28998,555.557499 L759.709493,557.960697 L760.297944,558.595495 C796.165355,598.285181 804.759617,670.511291 783.16659,742.365463 L782.194362,745.535154 C757.073539,825.804751 699.564512,891.127366 620.349012,919.733448 C541.594597,948.201518 469.802837,945.786653 406.342686,917.585232 C354.627317,894.603142 310.592499,855.234818 278.03806,807.864772 C268.493366,793.99285 260.845381,779.298692 254.976424,763.887217 C236.249135,714.710651 236.381782,662.315529 247.828226,613.14095 C249.51251,605.905171 251.317627,599.385221 253.125734,593.679325 L254.043115,590.857705 L255.147448,587.652183 L252.965042,585.142723 C250.428254,582.167955 246.597356,577.540934 242.962136,572.931745 L240.27435,569.476435 C228.596572,554.228812 216.938381,536.771293 206.054834,517.339403 C160.350397,435.736997 142.17251,346.734669 167.457494,255.726704 C193.100772,163.283959 272.26303,84.4675342 373.446266,50.7838536 C484.015636,13.9755493 606.065799,34.3875524 713.127804,116.807653 Z M374.619529,54.3082471 C274.575334,87.6127436 196.338789,165.507499 171.036682,256.720338 C146.04802,346.661757 164.030102,434.70539 209.295683,515.524246 C220.088227,534.793656 231.648771,552.104954 243.223368,567.217854 L246.442263,571.342206 L247.042032,572.096374 C251.548066,577.748169 256.185787,583.251381 258.051289,585.356878 L258.824605,586.187552 L257.303883,587.184747 L259.058018,587.801655 L258.386518,589.644355 L257.565173,592.037963 C257.277987,592.897832 256.977955,593.819343 256.666751,594.801416 C254.887078,600.417584 253.107711,606.844527 251.446059,613.983078 C240.152738,662.499834 240.0219,714.180169 258.447783,762.565263 C264.212837,777.703895 271.723766,792.134727 281.098795,805.760065 C313.28773,852.598264 356.809856,891.508228 407.85117,914.19077 C470.432479,942.001637 541.231176,944.383098 619.086807,916.239921 C697.152522,888.049045 753.859655,823.637275 778.649357,744.425725 C801.095682,672.702063 792.944769,600.305222 757.578561,561.126492 L754.997304,558.360065 L758.880739,552.441491 L761.349581,548.521642 C763.049711,545.777386 764.855523,542.772194 766.750277,539.512737 C774.855147,525.570306 782.948919,509.828759 790.504894,492.58887 C824.417409,415.213281 836.458491,335.594118 813.792926,261.34191 C797.605194,208.311031 764.076814,160.675669 710.862616,119.751599 C604.780246,38.0856563 484.019369,17.8892769 374.619529,54.3082471 Z M705.552036,130.127199 C757.634566,170.099568 790.47908,216.781027 806.291405,268.80904 C828.301126,341.228624 816.589254,418.675021 783.696976,493.868183 C776.396064,510.558381 768.575798,525.805892 760.735261,539.332662 L758.042287,543.907558 C756.729246,546.103067 755.467768,548.16024 754.264134,550.077152 L752.368169,553.052137 L750.840689,555.380455 L751.421854,556.010609 C785.928255,594.355125 794.154214,663.91943 773.336777,733.104349 L772.370518,736.248747 C748.110924,813.579821 692.655271,876.485831 616.32037,903.998547 C540.486442,931.381653 471.340686,929.026574 410.219141,901.838159 C360.395948,879.675539 317.972811,841.72241 286.636741,796.074436 C277.445456,782.709159 270.081197,768.551641 264.430618,753.703035 C246.404004,706.33266 246.53635,655.866159 257.561888,608.492058 C258.951037,602.523216 260.42551,597.059341 261.914674,592.157826 L262.660154,589.754197 C263.11874,588.305855 263.553468,586.988793 263.959366,585.80509 L264.608337,583.956328 L262.474977,581.497076 C260.261619,578.895431 257.015022,574.974613 253.817601,570.950457 L250.277825,566.417009 C239.034083,551.721797 227.818742,534.917615 217.347099,516.215954 C173.337843,437.618332 155.829044,351.920577 180.157191,264.292731 C204.824327,175.22517 281.024827,99.2782597 378.45508,66.7824691 C484.904579,31.2785008 602.43653,50.8556733 705.552036,130.127199 Z M379.630344,70.3061959 C283.338764,102.422206 208.063334,177.447126 183.736679,265.285285 C159.704448,351.847266 177.017478,436.586818 220.588163,514.401181 C230.103945,531.395739 240.239123,546.809561 250.44357,560.476041 L253.227905,564.159815 C258.893136,571.564091 266.446121,580.525802 268.047343,582.257202 L268.285494,582.504163 L266.758539,583.488893 L268.514018,584.098447 L267.858449,585.901645 L267.066485,588.212277 C266.789825,589.041458 266.500984,589.929398 266.201432,590.875466 C264.488986,596.283848 262.77785,602.467409 261.179751,609.334056 C250.307239,656.050641 250.176766,705.802736 267.90229,752.381903 C273.449036,766.957656 280.676309,780.851822 289.69828,793.970897 C320.669247,839.087017 362.579635,876.581424 411.728843,898.444239 C471.971754,925.241815 540.124435,927.56307 615.059838,900.504416 C690.245284,873.405988 744.898508,811.41021 768.826276,735.13688 C790.486873,666.090496 782.702016,596.367732 748.698021,558.536846 L747.134339,556.839337 L746.1311,555.776729 L749.949431,549.947904 L752.328286,546.15867 C753.965066,543.508368 755.701117,540.610555 757.521543,537.469891 C765.294772,524.059244 773.051664,508.935297 780.293783,492.379501 C812.863738,417.923182 824.447592,341.323323 802.737367,269.889182 C787.1534,218.612548 754.765477,172.580035 703.289286,133.073018 C601.153395,54.5545872 484.910712,35.1921666 379.630344,70.3061959 Z M697.983007,143.441047 C748.332005,181.99808 780.037533,227.081501 795.244078,277.361483 C816.292388,346.957085 805.038301,421.37687 773.49197,493.649442 C766.505139,509.656258 759.022248,524.286628 751.512758,537.284741 C749.308064,541.100827 747.228029,544.553916 745.297037,547.640857 L743.474184,550.512694 L741.978117,552.800212 L742.55194,553.425968 C775.698026,590.424905 783.554522,657.325684 763.510382,723.841667 L762.550368,726.959206 C739.150567,801.349928 685.747169,861.842268 612.292181,888.270564 C539.37816,914.563099 472.881167,912.265249 414.100805,886.089333 C366.171811,864.745721 325.361744,828.209082 295.236058,784.278508 C286.395696,771.417114 279.31356,757.792975 273.880566,743.503587 C256.557059,697.940812 256.690213,649.402304 267.295263,603.835785 C268.629909,598.101234 270.046525,592.850447 271.477564,588.138266 L272.193973,585.827313 C272.635303,584.432779 273.053882,583.163958 273.444958,582.022823 L274.062994,580.254241 L271.768949,577.59566 C269.22056,574.584987 265.402129,569.943603 261.921148,565.481164 L260.281046,563.358085 C249.470694,549.21522 238.697525,533.064309 228.637157,515.092866 C186.321042,439.501032 169.480068,357.109955 192.85128,272.865612 C216.545425,187.173149 289.785781,114.095855 383.46442,82.7864156 C485.795268,48.5852192 598.810764,67.3237558 697.983007,143.441047 Z M384.641881,86.3094089 C292.101458,117.238432 219.785441,189.393446 196.431069,273.857077 C173.355377,357.036186 190.000593,438.469555 231.878406,513.278424 C240.941865,529.469028 250.589058,544.168521 260.313175,557.232369 L263.232211,561.102309 C268.62745,568.160742 275.845468,576.744545 277.469821,578.522573 L277.746383,578.808308 L276.213196,579.793038 L277.961565,580.421799 L277.329915,582.159361 C276.967564,583.187179 276.5759,584.342916 276.159663,585.624551 L275.735411,586.948077 C274.090717,592.145052 272.447678,598.084302 270.913123,604.677797 C260.461026,649.587125 260.329831,697.411606 277.352624,742.18347 C282.681841,756.199913 289.627028,769.560598 298.298353,782.17607 C328.059365,825.574861 368.356733,861.652487 415.6119,882.696033 C473.51391,908.480803 539.017883,910.744339 611.033394,884.775804 C683.33922,858.760964 735.939748,799.178069 759.006979,725.844624 C779.883525,659.475627 772.465752,592.429504 739.823331,555.947077 L738.274755,554.259468 L737.277741,553.20013 L741.022342,547.455366 L743.311537,543.79516 C744.884913,541.238267 746.550699,538.448152 748.2964,535.426532 C755.739121,522.54399 763.159129,508.036567 770.087596,492.163463 C801.313172,420.625738 812.43967,347.049664 791.688576,278.4368 C776.710232,228.911357 745.46305,184.479677 695.722968,146.388948 C597.530394,71.0235795 485.80409,52.4987973 384.641881,86.3094089 Z M690.40696,156.760384 C739.026508,193.902838 769.594717,237.391151 784.195132,285.927405 C804.281132,352.699423 793.484458,424.094424 763.28488,493.442084 C756.612288,508.76444 749.466615,522.776878 742.28982,535.241587 C740.26272,538.76227 738.343915,541.964869 736.552321,544.849252 L734.600546,547.941961 L733.115545,550.226202 L733.656933,550.81355 C765.471201,586.467039 772.963238,650.747332 753.669358,714.62837 L752.730346,717.669907 C730.190826,789.122293 678.840973,847.1976 608.269618,872.529486 C538.269329,897.737362 474.415966,895.501228 417.975641,870.340675 C371.937381,849.817262 332.740176,814.694897 303.834766,772.481977 C295.340784,760.118708 288.538162,747.021206 283.321874,733.283462 C266.71197,689.539207 266.847702,642.942294 277.028987,599.187461 C278.522461,592.769147 280.122807,586.980739 281.728419,581.902362 L282.930563,578.242351 L283.51765,576.552154 L281.950683,574.740785 C279.730501,572.133095 276.154897,567.805584 272.771406,563.504745 L270.283631,560.297841 C259.90672,546.706854 249.575732,531.208679 239.926651,513.966924 C199.303644,441.378467 183.130472,362.292548 205.544716,281.431745 C228.262768,199.117319 298.541539,128.911275 388.467614,98.7897626 C486.679493,65.8928492 595.178383,83.7947768 690.40696,156.760384 Z M389.64741,102.311975 C300.859099,132.052383 231.503915,201.335797 209.124845,282.421984 C187.005674,362.218293 202.983108,440.347062 243.168125,512.152883 C252.726893,529.23326 262.961176,544.586362 273.236011,558.043657 L275.648901,561.153165 C280.066435,566.766393 284.93924,572.578318 286.632998,574.496559 L287.194807,575.106221 L285.655387,576.103416 L287.416839,576.720787 L286.676038,578.766332 C286.479993,579.329766 286.263778,579.965932 286.028947,580.675133 L285.270168,583.022144 C283.692715,588.011457 282.117894,593.70754 280.646886,600.029308 C270.618394,643.127499 270.48474,689.011051 286.794516,731.964883 C291.907056,745.429393 298.572692,758.263147 306.898008,770.380922 C373.614178,867.811958 479.422998,914.980511 607.012873,869.033991 C676.435394,844.114483 726.981748,786.947913 749.187866,716.552438 C769.284942,652.842826 762.224773,588.453665 730.923305,553.329215 L729.414448,551.678862 L728.419732,550.618467 L730.064236,548.112295 C730.67285,547.188013 731.344681,546.148998 732.095067,544.964731 C734.226141,541.601446 736.563685,537.74237 739.070722,533.38813 C746.181287,521.038449 753.264574,507.148347 759.879246,491.958996 C789.759758,423.344012 800.429303,352.78967 780.638035,286.997431 C766.265639,239.219183 736.157704,196.385686 688.149864,159.710538 C593.900946,87.4955625 486.691168,69.8063337 389.64741,102.311975 Z M682.830768,170.076497 C729.718571,205.801963 759.149263,247.69139 773.145028,294.479062 C792.275893,358.433313 781.935149,426.809782 753.075515,493.23824 C746.716455,507.875382 739.907233,521.269313 733.062476,533.2 C731.124485,536.577996 729.288178,539.654436 727.56995,542.431631 L725.59313,545.577756 L724.246741,547.64596 L724.754811,548.203437 C755.24181,582.514613 762.372085,644.173906 743.827638,705.419256 L742.910279,708.382301 C721.231272,776.893843 671.931361,832.553478 604.234595,856.797754 C480.263835,901.38133 377.171376,855.363507 312.439614,760.688428 C304.300662,748.834114 297.782516,736.275967 292.784578,723.104156 C276.869052,681.1596 277.002658,636.48316 286.76371,594.527035 C288.193118,588.382978 289.724752,582.839918 291.262219,577.972849 L292.415646,574.457837 L292.972307,572.850067 L290.632734,570.115017 C288.525855,567.607291 285.588191,564.026156 282.787145,560.466349 L280.285384,557.240396 C270.343978,544.206239 260.455291,529.362348 251.217962,512.852006 C212.28776,443.270101 196.783075,367.4848 218.24436,290.001086 C239.986177,211.062001 307.302985,143.725375 393.476141,114.790814 C487.567899,83.1974053 591.548608,100.262513 682.830768,170.076497 Z M394.658513,118.312162 C309.62263,146.864858 243.228577,213.278458 221.824848,290.990022 C200.658172,367.41009 215.967142,442.238754 254.459639,511.038329 C262.692169,525.752743 271.447185,539.13054 280.289005,551.063648 L283.238896,554.987695 C287.159023,560.127366 292.19697,566.235412 294.859919,569.367064 L296.643231,571.404134 L295.116276,572.401329 L296.868033,573.028197 L296.152803,575.005673 C295.870058,575.819128 295.544495,576.78763 295.180664,577.91343 L294.804247,579.091746 C293.294839,583.86999 291.788648,589.320974 290.38164,595.368743 C280.773286,636.668526 280.641813,680.631967 296.257523,721.786374 C301.151812,734.685022 307.533088,746.97947 315.503913,758.588915 C379.360041,851.983306 480.772152,897.251066 602.979872,853.301533 C669.528316,829.468505 718.02409,774.716742 739.368798,707.261675 C758.68635,646.212969 751.980842,584.482527 722.015806,550.713245 L720.547744,549.101189 L719.556416,548.040623 L721.809956,544.593709 L723.162282,542.476146 C725.207844,539.234515 727.444608,535.527686 729.840514,531.351527 C736.619616,519.535279 743.366982,506.263021 749.668593,491.758113 C778.210893,426.060086 788.424979,358.521127 769.586285,295.543601 C755.818362,249.5176 726.850004,208.286226 680.576846,173.029076 C590.274334,103.964345 487.582687,87.1107957 394.658513,118.312162 Z M675.260059,183.390025 C720.414584,217.698493 748.705682,257.990434 762.094511,303.03192 C780.267023,364.166242 770.383359,429.521373 742.867181,493.030349 C736.821905,506.983203 730.3495,519.759273 723.836781,531.157491 C721.988365,534.392491 720.235113,537.342388 718.59054,540.012567 L716.693862,543.04524 L715.384169,545.07195 L715.880239,545.616037 C745.010453,578.580685 751.771435,637.583632 733.99641,696.166047 L733.087202,699.094694 C712.26798,764.665774 665.022211,817.909733 600.211226,841.063597 C481.613011,883.643505 382.918577,839.531517 321.037576,748.898574 C313.252009,737.550801 307.017583,725.529182 302.238029,712.920125 C287.023228,672.781581 287.156624,630.033509 296.496898,589.87786 C297.635058,584.984692 298.840949,580.489065 300.062037,576.430419 L301.178257,572.852179 L302.433196,569.14798 L300.731469,567.166937 C298.694023,564.751224 295.604893,560.991539 292.676092,557.263216 L290.288881,554.180372 C280.780006,541.696734 271.333445,527.505777 262.507179,511.725114 C225.270213,445.148369 210.433484,372.672175 230.937144,298.574182 C251.705915,223.010204 316.062486,158.543196 398.483923,130.794868 C488.456952,100.50419 587.921168,116.730498 675.260059,183.390025 Z M399.669115,134.315268 C318.384366,161.680914 254.94961,225.224525 234.518019,299.561715 C214.308459,372.596871 228.949487,444.11708 265.749103,509.911878 C274.485593,525.53203 283.83618,539.578811 293.243835,551.929563 L295.41466,554.7346 C298.899643,559.176119 302.73399,563.806397 304.743443,566.163751 L306.110353,567.70828 L304.5647,568.711707 L306.321836,569.330191 L305.629789,571.248309 C305.357913,572.031808 305.046121,572.960624 304.698238,574.038327 L304.338465,575.165791 C302.896319,579.736007 301.458333,584.943585 300.114867,590.719406 C290.927159,630.219142 290.795986,672.254743 305.711418,711.603512 C310.387416,723.939379 316.485064,735.697251 324.102914,746.80058 C385.109304,836.15253 482.123498,879.513526 598.958798,837.566553 C662.621848,814.82279 709.062859,762.485758 729.546819,697.970601 C748.081252,639.595569 741.741838,580.53802 713.135268,548.119351 L711.686396,546.520743 L710.700655,545.461948 L712.33568,542.953662 C712.911813,542.069883 713.537306,541.093476 714.23209,539.987227 C716.192032,536.866568 718.327343,533.312424 720.61158,529.314674 C727.059291,518.03023 733.470434,505.375087 739.458787,491.553614 C766.659593,428.772536 776.417137,364.251364 758.533937,304.09032 C745.372711,259.814513 717.546174,220.184196 673.009613,186.345254 C586.650453,120.43349 488.475196,104.41746 399.669115,134.315268 Z M667.68344,196.708316 C711.113499,229.600232 738.269652,268.297665 751.052555,311.597446 C768.268863,369.91459 758.839657,432.253537 732.662645,492.838374 C726.930352,506.105359 720.793447,518.262397 714.614068,529.121122 C712.414186,532.986869 710.352428,536.43311 708.453651,539.46956 L706.521597,542.491708 L707.005328,543.026825 C734.780504,574.645233 741.174547,630.995735 724.169073,686.91711 L723.268601,689.809083 C703.309701,752.442403 658.115404,803.271325 596.182109,825.334474 C482.957465,865.906817 388.65827,823.696907 329.63611,737.101165 C322.202305,726.257142 316.250653,714.768762 311.689159,702.718778 C297.178845,664.387244 297.312727,623.566449 306.231144,585.218289 C307.316067,580.553246 308.465541,576.265677 309.629834,572.392822 L310.813886,568.609424 L311.88853,565.45086 L309.942555,563.163683 C307.421693,560.153514 303.491258,555.327012 300.291524,551.120434 C291.216265,539.189511 282.211909,525.651975 273.796967,510.601675 C238.25293,447.030426 224.083889,377.860686 243.630528,307.146122 C263.426229,234.957254 324.822526,173.359863 403.491424,146.798497 C489.345067,117.811311 584.291021,133.200625 667.68344,196.708316 Z M404.679685,150.317863 C327.146843,176.495656 266.671339,237.169239 247.211825,308.132118 C227.95873,377.784736 241.932085,445.999186 277.039149,508.788902 C285.364632,523.679201 294.273442,537.07309 303.247983,548.871602 L304.669709,550.719524 C309.053013,556.358799 314.31246,562.645269 315.39872,563.84471 L315.565009,564.012425 L314.019357,565.015853 L315.772089,565.642743 L315.215681,567.184233 L314.344374,569.764219 C314.190927,570.234553 314.033535,570.725131 313.87245,571.236072 C312.498401,575.594374 311.128794,580.557356 309.849143,586.059707 C301.083143,623.75249 300.951595,663.861448 315.163134,701.403713 C319.621173,713.180404 325.436125,724.404914 332.702697,735.004999 C390.851491,820.31935 483.470457,861.777161 594.932322,821.836487 C655.71805,800.182144 700.106823,750.259175 719.729401,688.681272 C737.479713,632.978754 731.503767,576.591168 704.253887,545.523061 L701.842403,542.878307 L704.067,539.457 C704.438592,538.876334 704.848571,538.228704 705.304181,537.50011 C707.176381,534.50616 709.211841,531.103876 711.38566,527.28393 C717.50065,516.538352 723.576871,504.501527 729.25277,491.365062 C755.11644,431.505433 764.420068,369.996715 747.490006,312.649177 C734.934463,270.119538 708.245385,232.087686 665.436858,199.666481 C583.024101,136.904863 489.367034,121.724458 404.679685,150.317863 Z M660.10605,210.021514 C701.805976,241.494885 727.824016,278.595374 740.000075,320.150642 C756.262907,375.653523 747.288599,434.978758 722.449389,492.644704 C717.030057,505.226058 711.228776,516.764153 705.382253,527.085035 L702.938425,531.321615 C702.145199,532.671288 701.373832,533.958668 700.625748,535.184443 L698.888249,537.988382 L697.652793,539.911465 L698.098474,540.410393 C724.550651,570.682749 730.583428,624.420478 714.323372,677.714994 L713.446985,680.51943 C694.349433,740.213555 651.208646,788.627906 592.158515,809.600396 C484.302113,848.1685 394.413841,807.867738 338.240291,725.311291 C331.160628,714.976138 325.492899,704.027012 321.149496,692.542828 C307.334392,656.014964 307.466589,617.120883 315.965032,580.569248 C316.996782,576.131714 318.089784,572.051791 319.197713,568.362183 L320.51346,564.177457 L321.342508,561.743806 L320.087127,560.274443 C318.281878,558.128722 315.420894,554.639426 312.696304,551.168327 L310.294415,548.061304 C301.653553,536.682908 293.092095,523.798504 285.089132,509.478306 C251.239966,448.909902 237.739803,383.044716 256.329451,315.713333 C275.145674,246.899897 333.578251,188.171818 408.494248,162.797197 C490.227687,135.113455 580.657158,149.665752 660.10605,210.021514 Z M409.685896,166.315416 C335.905346,191.305453 278.392492,249.109157 259.911254,316.697485 C241.61448,382.968109 254.919009,447.87883 288.331677,507.666182 C296.24554,521.826946 304.711936,534.568289 313.252642,545.814798 L315.39996,548.594769 C318.11844,552.063595 321.066529,555.662024 322.979354,557.948643 L325.019665,560.322803 L323.474013,561.326231 L325.226812,561.942147 L324.729404,563.314182 C324.446528,564.119423 324.113306,565.105887 323.733837,566.284315 L323.406995,567.311004 C322.100203,571.461745 320.799018,576.180729 319.583078,581.410463 C311.236919,617.307122 311.10714,655.489872 324.623862,691.228797 C328.863916,702.439722 334.395062,713.124991 341.308071,723.216873 C396.609568,804.491676 484.817794,844.039201 590.911558,806.101399 C648.814518,785.536339 691.148989,738.026867 709.909077,679.38757 C726.880312,626.339778 721.257459,572.606749 695.340322,542.899208 L693.957536,541.357971 L692.97937,540.297948 L695.159806,536.932641 L696.367358,535.014646 C698.152177,532.146054 700.08724,528.896009 702.150245,525.254182 C707.933084,515.045722 713.674335,503.62702 719.037866,491.175213 C743.565968,434.231524 752.415304,375.732429 736.435394,321.195125 C724.486399,280.414795 698.93812,243.984163 657.863668,212.982863 C579.394462,153.37136 490.253774,139.02646 409.685896,166.315416 Z M652.535876,223.337638 C692.506682,253.391512 717.386793,288.895407 728.955561,328.707252 C744.266827,381.398233 735.746623,437.712851 712.243058,492.460496 C707.136367,504.355682 701.670275,515.274334 696.156919,525.055324 C694.574577,527.862485 693.067292,530.434315 691.645629,532.775978 L689.413965,536.375982 L688.790221,537.337455 L689.221374,537.823545 C714.318819,566.749159 719.983765,617.838109 704.490291,668.474093 L703.624198,671.23547 C685.386948,727.990022 644.299307,773.987872 588.129869,793.869457 C485.64969,830.434195 400.15953,792.036524 346.839427,713.518214 C340.108559,703.683692 334.721809,693.264197 330.595723,682.335055 C317.489787,647.620162 317.623723,610.661696 325.699644,575.916958 C326.639222,571.874648 327.632254,568.143629 328.64058,564.749489 L329.718052,561.264112 L330.797165,558.035487 L328.924775,555.823167 C327.209679,553.758912 324.836067,550.841926 322.572268,547.952946 L320.296298,545.00414 C312.090813,534.18255 303.971243,521.95199 296.379681,508.362736 C264.223188,450.801096 251.390183,388.237131 269.023401,324.283614 C286.866576,258.848146 342.339004,202.991424 413.502825,178.803745 C491.117731,152.423424 577.030519,166.136861 652.535876,223.337638 Z M414.698195,182.320702 C344.669031,206.122725 290.115089,261.054599 272.60572,325.265888 C255.264684,388.159725 267.90208,449.770052 299.622522,506.551141 C307.125333,519.981527 315.150308,532.069596 323.256176,542.759809 L325.403167,545.541571 C329.365652,550.599499 333.831582,555.945405 334.430649,556.580775 L334.474322,556.620716 L332.928669,557.630376 L334.681201,558.242878 L334.216533,559.527551 C333.954687,560.273452 333.649175,561.177312 333.302696,562.250887 L332.942662,563.38147 C331.703172,567.324134 330.470159,571.799947 329.317745,576.757935 C321.393892,610.848437 321.26253,647.096468 334.070866,681.023081 C338.093691,691.678706 343.343887,701.834067 349.908595,711.425832 C402.358126,788.662131 486.168304,826.305243 586.886013,790.369357 C641.908806,770.89363 682.189237,725.799456 700.087743,670.099082 C716.275316,619.723151 711.016053,568.659229 686.455413,540.303715 L685.096613,538.779712 L684.12409,537.720176 L686.840644,533.492303 L687.437014,532.534356 C689.133732,529.792773 690.968633,526.694997 692.921041,523.231321 C698.371465,513.561976 703.778228,502.761835 708.829756,490.99514 C732.024636,436.966525 740.420523,381.473592 725.388557,329.743774 C714.046508,290.712144 689.639119,255.882822 650.298183,226.302529 C575.77257,169.843994 491.148401,156.336248 414.698195,182.320702 Z M644.9585,236.656002 C683.204049,265.289723 706.947468,299.198908 717.908114,337.270806 C732.267988,387.149957 724.201558,440.454739 702.03338,492.281924 C697.239405,503.489803 692.108486,513.787942 686.929127,523.026247 L685.113267,526.226061 C683.695112,528.690922 682.489452,530.697745 681.307595,532.592223 L679.927649,534.763445 L680.318325,535.203944 C704.093681,562.78365 709.396049,611.265788 694.643279,659.278919 L693.803038,661.945697 C676.425228,715.761435 637.389191,759.344254 584.100546,778.134796 C487.05015,812.682349 406.158247,776.240914 355.435657,701.71805 C349.146206,692.477295 344.099127,682.696247 340.218211,672.4439 C327.716494,639.417694 327.812938,604.262487 335.462628,571.222066 C336.56683,566.452813 337.749509,562.140614 338.941435,558.331196 L339.910635,555.349123 L340.258054,554.339632 L338.761638,552.563998 C336.921981,550.351122 334.182598,546.976357 331.713487,543.788217 L330.301069,541.944537 C322.52889,531.674564 314.851938,520.097785 307.671923,507.239093 C277.208184,452.681568 265.044066,393.425437 281.722889,332.856657 C298.589558,270.793864 351.099437,217.806262 418.510578,194.805845 C492.004636,169.729962 573.399347,182.60723 644.9585,236.656002 Z M419.710071,198.321398 C353.432814,220.934938 301.840087,272.997044 285.305783,333.836822 C268.918404,393.347269 280.886944,451.65066 310.915131,505.428156 C317.218863,516.717511 323.910744,527.006965 330.709177,536.27526 L333.263034,539.702962 C335.947261,543.249835 339.432594,547.552797 341.680531,550.27105 L343.928978,552.924862 L342.377093,553.934522 L344.133025,554.551638 L343.427654,556.544555 L342.486508,559.440411 C341.321785,563.162885 340.163825,567.384957 339.081454,572.059915 C331.583273,604.445946 331.488777,638.890681 343.692195,671.128861 C347.471102,681.111725 352.383826,690.632399 358.506424,699.628006 C408.355294,772.867179 487.571693,808.553807 582.860053,774.633504 C635.002727,756.247044 673.23057,713.566554 690.26821,660.804254 C705.678648,613.081088 700.772862,564.668817 677.544198,537.67497 L676.234879,536.197488 L675.268279,535.138444 L677.459145,531.734699 C679.315458,528.803067 681.135805,525.763878 683.689042,521.209728 C688.806276,512.082232 693.878623,501.901652 698.618132,490.821111 C720.48029,439.709373 728.423121,387.22136 714.338545,338.298461 C703.604216,301.012676 680.336836,267.783346 642.726002,239.624805 C572.146546,186.316019 492.040324,173.642601 419.710071,198.321398 Z M637.38703,249.967901 C673.90604,277.179681 696.512034,309.493189 706.864293,345.82447 C720.277421,392.897878 712.662982,443.200128 691.824861,492.110517 C687.34274,502.630769 682.545988,512.308021 677.700504,521.001337 L676.011164,523.994032 C674.943121,525.860064 673.982914,527.484676 673.079346,528.968525 L671.065078,532.189435 L671.4375,532.610858 C693.864496,558.842835 698.800637,604.68192 684.809941,650.042287 L683.981777,652.658558 C667.463516,703.534178 630.479095,744.700745 580.070979,762.400221 C488.400455,794.94288 411.926825,760.413544 364.033645,689.92669 C358.10865,681.204361 353.352252,671.97372 349.692946,662.299649 C337.877505,631.06328 337.969316,597.819162 345.199377,566.56571 C346.031376,562.96922 346.910588,559.646917 347.804349,556.619062 L348.806906,553.36019 L349.71271,550.643778 L348.07306,548.680666 C346.360518,546.603992 343.919642,543.582752 341.709542,540.725869 L340.302332,538.886242 C332.965226,529.171265 325.730584,518.248023 318.96222,506.120043 C290.19077,454.56555 278.693845,398.611331 294.41611,341.423597 C310.306566,282.738542 359.854784,232.62084 423.513388,210.806482 C492.889223,187.03296 569.768807,199.071744 637.38703,249.967901 Z M424.717542,214.320442 C362.191883,235.746565 313.559294,284.938115 297.999659,342.401362 C282.567972,398.532204 293.869356,453.534751 322.205843,504.309848 C328.886353,516.280406 336.027611,527.062651 343.266506,536.647589 L345.386174,539.401174 C348.580781,543.486675 352.127897,547.783107 353.125389,548.942975 L353.383635,549.23524 L351.83175,550.238667 L353.586625,550.855336 L352.911803,552.768495 C352.737983,553.282087 352.548285,553.857093 352.342768,554.498416 L352.022636,555.510749 C350.925884,559.023505 349.836657,563.001081 348.818353,567.402911 C341.73957,598.002433 341.649719,630.536669 353.167253,660.98546 C356.724904,670.390788 361.347478,679.36172 367.106197,687.839271 C414.126628,757.041656 488.925523,790.814816 578.834338,758.897568 C628.09716,741.600221 664.272281,701.334469 680.448778,651.511466 C695.082371,606.440553 690.529248,560.678555 668.630748,535.04412 L667.372698,533.61475 L666.412735,532.556242 L668.615308,529.124304 C670.302635,526.43883 672.113725,523.395016 674.455918,519.192869 C679.240139,510.609466 683.979128,501.048748 688.407534,490.654575 C708.942506,442.455722 716.434116,392.964905 703.291933,346.842381 C693.165518,311.303702 671.039219,279.675878 635.160375,252.941085 C568.521906,202.782415 492.930622,190.945369 424.717542,214.320442 Z M629.808239,263.285699 C690.480239,308.251758 710.06638,367.114847 699.076798,433.145978 C695.184745,456.531456 687.644667,479.283062 677.767443,500.628077 C674.219723,508.294819 670.583878,515.303862 667.013178,521.576037 L664.651986,525.635714 L662.202506,529.615425 L662.554468,530.016792 C683.635235,554.900763 688.206769,598.100136 674.977267,640.810611 L674.162125,643.372502 C658.504202,691.308983 623.570951,730.060802 576.040497,746.67198 C489.747486,777.205021 417.688139,744.581701 372.637225,678.129069 C367.069618,669.916478 362.599523,661.226081 359.159884,652.118906 C348.042603,622.683549 348.131407,591.362236 354.937481,561.906613 C355.912859,557.685332 356.95728,553.863727 358.01233,550.475493 L358.876481,547.802842 L359.167367,546.941691 L356.672366,543.909139 C355.441053,542.391139 353.979414,540.563004 352.560599,538.742811 L350.316762,535.816778 C343.423105,526.646757 336.639359,516.365885 330.29061,504.955192 C303.294967,456.43556 292.469436,403.807583 307.109749,349.992935 C322.155334,294.694418 368.759773,247.461717 428.609859,226.834652 C493.835213,204.355026 566.137768,215.543075 629.808239,263.285699 Z M429.820197,230.346486 C371.099532,250.584301 325.406704,296.893103 310.694016,350.968089 C296.34178,403.723829 306.97266,455.405519 333.536567,503.149187 C339.015496,512.996539 344.823353,521.991431 350.742793,530.142852 L353.285893,533.584703 C354.756403,535.540792 356.525811,537.790765 358.140746,539.80796 L362.844445,545.537825 L361.280174,546.542813 L363.039477,547.159381 L362.425212,548.904439 L361.558918,551.579851 C360.530611,554.882204 359.510521,558.614777 358.556676,562.742871 C351.901509,591.545393 351.814714,622.157861 362.63485,650.806465 C365.973159,659.645346 370.309862,668.076412 375.711832,676.044677 C419.891432,741.212072 490.276775,773.077523 574.808227,743.167789 C621.194037,726.956633 655.316769,689.103931 670.631165,642.219153 C684.476849,599.830813 680.291159,556.750499 659.760869,532.46586 L658.509452,531.031493 L657.556838,529.973577 L658.330912,528.77881 C659.841238,526.447656 661.529426,523.700507 663.785077,519.738304 C667.305958,513.55364 670.89406,506.636635 674.396326,499.068121 C684.14268,478.005919 691.580103,455.564069 695.412646,432.536152 C706.186351,367.802126 687.06863,310.346805 627.588146,266.263782 C564.897598,219.255978 493.883603,208.26732 429.820197,230.346486 Z M622.228333,276.596918 C679.264769,318.612413 697.882651,373.782143 687.854267,435.778181 C684.295204,457.780511 677.294484,479.218457 668.074965,499.359459 C665.302996,505.415114 662.465575,511.04818 659.648071,516.210209 L657.960641,519.250514 C656.586702,521.684756 655.37609,523.737191 654.319538,525.461147 L653.333701,527.041415 L653.662876,527.421502 C673.401879,550.956238 677.610477,591.51883 665.140483,631.582857 L664.339381,634.086051 C649.542838,679.081846 616.662719,715.417665 572.015548,730.937531 C491.099488,759.469812 423.46023,728.754739 381.233819,666.331252 C376.023618,658.628382 371.839853,650.478228 368.619925,641.93798 C358.199761,614.300477 358.287082,584.896278 364.672382,557.241328 C365.401334,554.084214 366.171546,551.164336 366.955453,548.497497 L367.890796,545.452047 L368.628256,543.239604 L365.124453,538.935987 C364.30379,537.908631 363.428093,536.80098 362.567362,535.69503 L360.319693,532.758065 C353.86168,524.142161 347.52135,514.515058 341.585158,503.835005 C316.288282,458.32233 306.131449,409.000578 319.807961,358.566089 C333.883702,306.644837 377.52682,262.281118 433.620022,242.838673 C494.723806,221.659513 562.504807,232.007452 622.228333,276.596918 Z M434.836519,246.348378 C379.871204,265.399886 337.137434,308.839244 323.39307,359.538141 C310.003315,408.915165 319.965671,457.29253 344.831895,502.030402 C349.950379,511.239282 355.374318,519.654571 360.912191,527.300436 L363.291982,530.530198 C364.367479,531.965062 365.623695,533.581421 366.850719,535.134002 L372.296395,541.844473 L370.741063,542.853191 L372.489473,543.469804 L372.050521,544.711997 C371.753391,545.575611 371.43384,546.549636 371.092775,547.64728 C370.13302,550.736043 369.181515,554.223235 368.291712,558.077002 C362.057022,585.079651 361.971804,613.77597 372.095643,640.627531 C375.214608,648.899992 379.26547,656.791245 384.310587,664.250052 C425.667054,725.387496 491.633314,755.342859 570.788098,727.431651 C614.291482,712.309359 646.359692,676.870781 660.810723,632.925677 C673.873678,593.201663 670.044775,552.78555 650.858072,529.85777 L649.63892,528.44772 L648.693751,527.389791 L649.465766,526.199602 C650.826226,524.102225 652.567135,521.249234 654.725789,517.424693 C658.043354,511.54688 661.416335,504.981341 664.697449,497.813406 C673.787034,477.956259 680.686272,456.829076 684.187379,435.185031 C694.006041,374.48551 675.861766,320.719207 620.015669,279.580519 C561.272135,235.72276 494.779604,225.571528 434.836519,246.348378 Z M614.649,289.911403 C668.052721,328.975749 685.702516,380.451784 676.633902,438.412984 C673.407836,459.032088 666.946624,479.156265 658.385008,498.093623 C655.28058,504.96028 652.076017,511.267421 648.912441,516.927878 C647.967568,518.618502 647.087982,520.143022 646.286815,521.493002 L644.47113,524.467405 L644.776652,524.828601 C663.173595,547.010979 667.017897,584.940894 655.303733,622.361928 L654.517697,624.801542 C640.580495,666.858281 609.751481,700.778799 567.985113,715.206995 C492.442711,741.728636 429.218829,712.921965 389.8315,654.536935 C384.97832,647.343158 381.080773,639.732551 378.080678,631.758452 C368.360567,605.922897 368.446542,578.443066 374.409549,552.584336 C375.087079,549.646211 375.802839,546.926931 376.532084,544.438991 L377.40345,541.592825 L378.082912,539.537517 L375.155689,535.922213 C374.339368,534.898574 373.452295,533.774835 372.579161,532.650847 L370.323305,529.6963 C364.300744,521.634301 358.403403,512.660352 352.879401,502.710219 C329.281317,460.20406 319.791923,414.18745 332.501192,367.130503 C345.613532,318.588962 386.295841,277.099508 438.630297,258.845006 C495.61105,238.969853 558.869257,248.478149 614.649,289.911403 Z M439.853665,262.352322 C388.64527,280.214049 348.869693,320.778781 336.087234,368.099109 C323.663199,414.099958 332.958317,459.174468 356.127037,500.907233 C360.88547,509.478382 365.925948,517.314732 371.082573,524.455414 L373.299182,527.473228 C375.506116,530.427502 378.582564,534.274482 380.350728,536.45278 L381.749536,538.148543 L380.189487,539.157336 L381.943612,539.769468 L381.523768,540.964264 C381.245048,541.778122 380.947052,542.689956 380.629446,543.715498 C379.737608,546.595217 378.854844,549.838189 378.02911,553.419005 C372.216275,578.626509 372.132511,605.399798 381.557314,630.450437 C384.456858,638.157279 388.222043,645.509427 392.910837,652.459538 C431.429949,709.557583 492.981944,737.602493 566.763439,711.699101 C607.386796,697.665734 637.40231,664.640294 650.991713,623.633064 C663.273632,586.571286 659.802167,548.817341 641.959277,527.250366 L640.775249,525.866947 L639.839738,524.810456 L641.643465,521.988281 C642.763207,520.182867 644.125631,517.878845 645.66994,515.115675 C648.783798,509.544174 651.940869,503.330506 655.000296,496.563388 C663.433046,477.911067 669.794117,458.09879 672.963998,437.83879 C681.69133,382.05886 665.189801,332.662499 614.866914,294.700447 L612.444988,292.901393 C557.645271,252.196165 495.675245,242.881494 439.853665,262.352322 Z M607.074508,303.228472 C656.840932,339.338798 673.522115,387.120687 665.413079,441.044024 C662.520173,460.281219 656.597723,479.093683 648.694055,496.823759 C645.810513,503.292327 642.820535,509.250172 639.861232,514.601629 L638.128511,517.671749 C637.577831,518.626997 637.056727,519.510861 636.573247,520.313563 L635.602325,521.893395 L635.920361,522.272184 C675.124289,569.81674 641.136667,671.169226 566.26488,698.65519 L563.96015,699.473388 C493.795348,723.993491 434.990717,697.094961 398.434531,642.745343 C393.941391,636.064202 390.33167,628.99729 387.551744,621.594013 C378.522734,597.548674 378.605116,571.977541 384.147379,547.913877 C384.734104,545.366407 385.351848,542.99493 385.982088,540.80881 L387.119745,537.080963 L387.537569,535.83543 L384.738085,532.350653 C383.992068,531.40919 383.187824,530.384591 382.399103,529.364458 L380.326059,526.63783 C374.739006,519.130194 369.284435,510.809652 364.172455,501.589893 C342.270752,462.08887 333.448512,419.378621 345.193719,375.704574 C357.342398,330.537139 395.064837,291.918486 443.642527,274.850755 C496.501436,256.278822 555.238374,264.948722 607.074508,303.228472 Z M444.873842,278.35529 C397.420144,295.028106 360.601421,332.721572 348.780802,376.669318 C337.319179,419.28887 345.947334,461.059514 367.421069,499.78867 C371.729924,507.559945 376.287023,514.682667 380.960295,521.207426 L383.306,524.420209 C384.556208,526.100182 386.129327,528.119392 387.541807,529.904885 L391.20201,534.455661 L389.637911,535.461482 L391.394438,536.079924 L390.511846,538.666482 L390.16503,539.780681 C389.342286,542.445351 388.528484,545.44204 387.767164,548.747574 C382.374664,572.160991 382.294554,597.02677 391.029216,620.288225 C393.709122,627.425137 397.187223,634.23437 401.516814,640.672319 C437.206555,693.733757 494.340575,719.868113 562.744868,695.963278 C600.485863,683.018534 628.446779,652.406832 641.172272,614.339131 C652.672258,579.937477 649.554653,544.843907 633.050049,524.636697 L631.904005,523.282184 L630.978213,522.226007 L632.725723,519.489365 C633.621791,518.037106 634.699502,516.212175 635.88613,514.102981 L636.610596,512.80406 C639.520091,507.542671 642.462607,501.6794 645.301335,495.311361 C653.07728,477.867803 658.901082,459.368693 661.739829,440.491638 C669.524366,388.72615 653.983702,342.997028 607.243492,307.968261 L604.880445,306.225761 C554.024351,268.669826 496.575299,260.190026 444.873842,278.35529 Z M599.499662,316.537393 C645.63194,349.695749 661.346219,393.786694 654.196186,443.673588 C651.636868,461.530344 646.253157,479.032604 639.007767,495.553831 C634.933903,504.843219 630.714715,512.809475 627.440639,518.192991 L626.733521,519.325618 L626.975915,519.607219 C663.182097,564.027954 631.443978,657.72221 562.06477,682.98676 L559.929191,683.738664 C495.142716,706.25849 440.748554,681.2644 407.031764,630.945984 C402.896178,624.77458 399.573017,618.247951 397.01309,611.411642 C388.683193,589.16657 388.764343,565.516812 393.885076,543.251217 C394.423623,540.90955 394.990563,538.727684 395.569484,536.713023 L396.541776,533.503202 L396.992225,532.133343 L393.124975,527.249309 C392.352055,526.255225 391.567063,525.233016 390.85219,524.281119 L390.330467,523.581918 C385.18058,516.631281 380.169049,508.964428 375.469586,500.475357 C355.266152,463.980034 347.111886,424.57291 357.89296,384.277937 C369.071558,342.487811 403.830754,306.739878 448.650755,290.857085 C497.387225,273.58642 551.604443,281.414716 599.499662,316.537393 Z M449.891475,294.358301 C406.193089,309.843629 372.334131,344.665715 361.481323,385.237909 C350.981805,424.480549 358.942256,462.951025 378.719397,498.676295 C383.334795,507.013513 388.257831,514.544981 393.315062,521.370563 L396.069709,524.982265 L400.653975,530.759784 L399.086335,531.765627 L400.847802,532.383672 L400.075723,534.647688 L399.702218,535.846324 C398.947672,538.299689 398.202457,541.051681 397.505125,544.083771 C392.533629,565.700464 392.454893,588.646516 400.49175,610.109021 C402.952224,616.67974 406.144518,622.949348 410.117567,628.878204 C442.97022,677.906994 495.694938,702.133976 558.721375,680.225984 C627.226888,656.927496 658.956634,564.765308 624.114843,521.976356 L623.038624,520.694956 L622.12443,519.639559 L622.884324,518.46816 C626.191002,513.370823 630.989074,504.589593 635.605967,494.06197 C642.724913,477.829063 648.011688,460.641939 650.519208,443.146585 C657.483759,394.553832 642.263569,351.849197 597.317358,319.543243 C550.402323,285.13946 497.472582,277.497059 449.891475,294.358301 Z M589.470434,328.102403 L591.917825,329.852856 C634.419504,360.055739 649.168728,400.453168 642.977014,446.3006 C640.751867,462.777013 635.907093,478.969452 629.320031,494.280925 C625.561993,503.016396 621.573238,510.653099 618.495335,515.746255 L617.870949,516.751608 L618.033174,516.944857 C651.240918,558.240807 621.751494,644.28379 557.864461,667.326119 L555.898021,668.011702 C496.489396,688.520078 446.514476,665.433116 415.629414,619.147555 C411.85057,613.485874 408.813355,607.499524 406.473,601.230187 C398.840773,580.784992 398.921334,559.055997 403.622496,538.588361 C404.113066,536.452548 404.62942,534.460341 405.157198,532.617354 L406.025737,529.737315 L406.334697,528.780274 L404.630096,526.469018 C400.011645,520.133954 391.767454,508.215206 387.205636,500.150384 L386.765168,499.362831 C368.25713,465.871379 360.769215,429.765103 370.586551,392.84648 C380.801358,354.43336 412.600572,321.556611 453.661925,306.860287 C497.44997,291.188049 546.131187,297.631312 589.470434,328.102403 Z M454.913647,310.357584 C414.970984,324.653516 384.067826,356.603847 374.176348,393.801075 C364.638261,429.66957 371.932645,464.842652 390.016314,497.566184 C394.220375,505.173695 398.701969,512.052698 403.323283,518.321677 L406.00373,521.851606 L410.106091,527.064427 L408.547224,528.076005 L410.301725,528.688845 L409.617209,530.701494 L409.239957,531.912104 C408.553379,534.153825 407.876421,536.661183 407.242779,539.419895 C402.690333,559.24006 402.612374,580.267097 409.952983,599.931104 C412.194519,605.935727 415.101711,611.665802 418.719123,617.085616 C448.742776,662.080235 497.05016,684.396844 554.699332,664.495903 C617.572732,643.327106 646.970295,558.974614 615.18597,519.331751 L614.172763,518.107587 L613.27277,517.054127 L614.026162,515.891299 C617.111817,511.128727 621.656089,502.696079 625.90784,492.812985 C632.369919,477.792032 637.119751,461.916913 639.29588,445.803461 C645.31296,401.249132 631.067088,362.230361 589.749392,332.868709 C546.781551,301.611254 498.374868,294.80232 454.913647,310.357584 Z M581.961896,341.482184 L584.333252,343.157368 C623.203173,370.409836 636.990476,407.118055 631.758407,448.923218 C629.868696,464.022346 625.562529,478.908376 619.633533,493.005713 C616.535396,500.372135 613.19064,507.011701 610.446534,511.77069 L609.002145,514.190063 L609.143219,514.361073 C639.239863,552.528997 612.058012,630.749434 553.77646,651.615025 L551.864985,652.274971 C497.838988,670.775013 452.286033,649.598306 424.23158,607.357131 C420.81173,602.20755 418.061627,596.764348 415.941028,591.065272 C408.998834,572.408237 409.07708,552.585688 413.360322,533.91063 C414.126871,530.568456 414.803156,528.143181 415.516934,525.931283 L415.814283,525.03456 L414.049893,522.631204 C410.111286,517.178032 403.513988,507.593132 399.349151,500.497152 L398.06342,498.243017 C381.252925,467.756151 374.432799,434.956679 383.284914,401.418339 C403.722259,323.962342 503.488649,287.124019 581.961896,341.482184 Z M386.876507,402.366156 C378.300779,434.857339 384.927744,466.727854 401.316243,496.449406 C404.476829,502.181324 407.809044,507.460692 411.254783,512.368739 L413.335384,515.269659 C414.223589,516.482193 415.389831,518.009412 416.47251,519.410113 L419.560125,523.370212 L417.995648,524.373918 L419.753325,524.993354 C418.911529,527.394542 418.175309,529.764469 417.343698,533.200144 L416.980866,534.741024 C412.845782,552.770109 412.7703,571.892504 419.422384,589.769875 C421.44499,595.205595 424.066214,600.393709 427.325898,605.302114 C454.521854,646.250664 498.409695,666.653291 550.677167,648.755495 C607.904412,629.722651 634.962501,553.225538 606.275086,516.722882 L605.298157,515.521073 L604.413419,514.468651 L605.161657,513.31518 C608.040367,508.877405 612.31929,500.815342 616.209487,491.565643 C622.015067,477.761751 626.228587,463.195993 628.072609,448.461926 C633.049127,408.69867 620.355305,373.920084 584.250261,347.662315 L582.181538,346.18515 C505.460287,290.924349 406.857221,326.640757 386.876507,402.366156 Z M574.607828,354.97769 L576.746858,356.470255 C611.988802,380.765201 624.814946,413.78206 620.539118,451.543485 C618.007546,473.900739 609.542212,495.786983 601.372219,509.601515 L600.133341,511.622285 L600.246592,511.760702 C627.255321,546.797111 602.365109,617.241953 549.665877,635.924989 L547.837677,636.548583 C499.179508,653.040751 458.044598,633.768024 432.827551,595.557076 C429.765557,590.917262 427.30226,586.014444 425.401846,580.882496 C419.158253,564.022062 419.236152,546.115823 423.099696,529.238229 C423.751778,526.389657 424.346009,524.229698 424.956,522.302502 L425.281405,521.295078 L422.436465,517.335801 C418.558376,511.832272 412.992331,503.578539 409.764833,497.862074 L409.360841,497.137442 C394.244456,469.653725 388.089711,440.155118 395.977511,409.994569 C414.248975,340.10219 503.826901,306.552646 574.607828,354.97769 Z M399.571243,410.93424 C391.956413,440.051035 397.918395,468.625758 412.615573,495.347299 C415.43355,500.470778 418.402496,505.195529 421.483855,509.6122 L423.757647,512.787709 L429.01172,519.675009 L427.456537,520.684296 L429.206575,521.298668 L428.49713,523.424667 C428.148073,524.5278 427.804013,525.712567 427.449204,527.075411 L426.720587,530.067108 C423.004418,546.300909 422.929554,563.509628 428.885231,579.592563 C430.68864,584.462556 433.024377,589.111487 435.927835,593.511071 C460.290328,630.427128 499.762765,648.920946 546.66301,633.024707 C598.247936,616.116749 622.967654,547.4439 597.353528,514.091965 L596.428562,512.929646 L595.563145,511.879949 L596.30293,510.738228 C599.008982,506.561939 602.984115,498.935879 606.509014,490.321373 C611.658468,477.736614 615.335955,464.48033 616.848153,451.125547 C620.893625,415.398477 609.174492,384.289618 576.674326,360.960596 L574.615962,359.51269 C505.614599,310.416655 417.371626,342.843855 399.571243,410.93424 Z M567.257041,368.470831 L569.163707,369.780636 C600.777082,391.119313 612.644496,420.447241 609.323206,454.160265 C607.334866,474.343079 599.802568,494.546757 592.405334,507.182735 L591.264536,509.054508 L591.356842,509.171989 C615.267436,541.066329 592.669637,603.734709 545.558847,620.226218 L543.802836,620.815756 C500.522551,635.2991 463.802373,617.932551 441.422914,583.761675 C438.715879,579.628296 436.53742,575.262092 434.856081,570.693164 C429.311134,555.625141 429.390829,539.627507 432.838299,524.551502 C433.298441,522.539269 433.742322,520.858337 434.179161,519.38639 L434.754759,517.555597 L432.111482,513.835642 C428.670019,508.900391 423.841014,501.680745 421.042045,496.715465 L420.660121,496.028808 C407.237777,471.545019 401.74809,445.347503 408.669919,418.564707 C424.783085,356.240861 504.169736,325.983424 567.257041,368.470831 Z M412.266264,419.494331 C405.613153,445.237371 410.910605,470.51752 423.917324,494.243165 C426.888631,499.663144 430.047663,504.586073 433.361458,509.185377 L438.465279,515.982217 L436.904961,516.988442 L438.658357,517.607548 C438.048052,519.343527 437.434381,521.338555 436.786384,523.994585 L436.459382,525.379544 C433.158559,539.814254 433.082324,555.117278 438.342087,569.410333 C439.927592,573.718837 441.980023,577.832448 444.530346,581.726543 C466.06001,614.59988 501.121108,631.181778 542.64498,617.286339 C588.580987,602.517804 610.964762,541.678493 588.445161,511.480861 L587.556835,510.334684 L586.713886,509.287897 L587.444666,508.15994 C595.091106,496.357678 603.536394,475.012383 605.62655,453.796083 C608.75152,422.075824 597.982922,394.605944 569.017027,374.191646 L567.058962,372.841176 C505.779151,329.910272 427.89542,359.042577 412.266264,419.494331 Z M559.895644,381.955116 L561.569815,383.08203 C589.557527,401.46202 600.471912,427.104171 598.104393,456.766485 C596.605066,475.551345 589.547668,494.783522 582.608006,506.162264 L582.395732,506.492963 L582.496848,506.630249 C603.245178,535.376951 582.973901,590.183937 541.505997,604.516227 L539.765954,605.089805 C501.865836,617.561799 469.570886,602.096081 450.023635,571.958652 C442.56969,560.467508 439.836379,547.29783 440.637584,533.47755 C440.924642,528.52597 441.656116,523.792032 442.690265,519.385835 C443.135334,517.489526 443.565262,515.923746 443.984507,514.570184 L444.22188,513.816115 L442.250351,511.00553 C439.506096,507.040944 435.664701,501.286926 433.116877,496.965913 L431.961831,494.939742 C420.228544,473.456825 415.402087,450.555439 421.361927,427.142705 C435.309142,372.383083 504.506164,345.409767 559.895644,381.955116 Z M424.961618,428.059284 C419.265116,450.437517 423.899914,472.429486 435.221841,493.159227 C437.270401,496.910012 439.420505,500.392539 441.670723,503.70152 L443.763705,506.689645 L447.917,512.286588 L446.353385,513.292587 L448.112067,513.910931 C446.541203,518.400705 445.132899,524.180749 444.519913,531.277971 L444.345909,533.692533 C443.587203,546.779747 446.16021,559.177048 453.140018,569.937254 C471.843769,598.774196 502.484472,613.447712 538.629352,601.553511 C578.905664,588.91562 598.943749,535.941627 579.549946,508.894563 L578.681831,507.735142 L577.866855,506.692392 L578.586407,505.581644 C585.491308,494.922796 592.890143,475.407988 594.401617,456.470945 C596.612651,428.769204 586.802405,404.937862 561.386672,387.434985 L559.499082,386.165616 C505.94578,349.398184 438.414685,375.239787 424.961618,428.059284 Z M552.371916,395.332972 L553.974665,396.379411 C578.341268,411.797104 588.308216,433.757562 586.887269,459.365273 C586.007713,475.216259 580.49128,491.754272 574.545433,502.212741 L573.514463,503.943883 L573.603848,504.067167 C591.254601,529.644226 573.281946,576.681124 537.394593,588.817123 L535.725598,589.352259 C503.201507,599.81711 475.325796,586.255022 458.616026,560.153266 C452.305202,550.297771 449.970366,539.019014 450.623107,527.182063 C450.858425,522.914747 451.475277,518.824068 452.355284,515.006282 C452.703518,513.495522 453.055843,512.175315 453.396804,511.034256 L453.745094,509.914589 L450.36043,505.259317 C447.847077,501.678227 445.492648,497.943901 443.269488,493.852231 C433.223186,475.362265 429.059862,455.75871 434.058917,435.723308 C445.812194,388.584347 504.695325,364.898014 552.371916,395.332972 Z M437.663051,436.622257 C432.920256,455.630614 436.892709,474.335431 446.533376,492.078837 C448.683887,496.036797 450.964181,499.653538 453.400879,503.125407 L457.370691,508.594962 L455.808041,509.602965 L457.563318,510.21955 C456.226942,514.020997 454.993782,519.171257 454.476935,525.30579 L454.332024,527.386589 C453.719164,538.500321 455.896398,549.017761 461.744322,558.150353 C477.618834,582.94738 503.846278,595.707554 534.617732,585.806903 C569.267616,575.299016 586.956548,530.110407 570.601041,506.256034 L569.796406,505.136461 L569.015141,504.098857 L569.721675,503.008992 C575.947386,493.4055 582.253235,475.832809 583.178422,459.159473 C584.490791,435.50853 575.665266,415.32571 553.851979,400.730852 L551.950395,399.493598 C506.110713,368.892452 448.929578,391.43551 437.663051,436.622257 Z M544.831154,408.716764 L546.363228,409.674322 C567.118126,422.123247 576.150598,440.403483 575.670748,461.947232 C575.365706,475.642665 570.933954,490.169247 565.667726,499.634942 L564.639426,501.38857 L564.700393,501.481153 C579.285212,523.877704 563.593632,563.21862 533.243079,573.147044 L531.687273,573.626305 C504.529542,582.075377 481.067032,570.411188 467.207285,548.347723 C462.039127,540.126439 460.103695,530.738924 460.6098,520.886616 C460.897065,515.29444 461.894939,510.377791 463.065847,506.638415 L463.205982,506.212502 L460.371084,502.224626 C458.307363,499.227269 456.394788,496.153429 454.585475,492.801975 C446.218051,477.302709 442.711946,460.981444 446.75026,444.304335 C456.324383,404.786657 504.884182,384.394909 544.831154,408.716764 Z M450.360424,445.178755 C446.568539,460.838184 449.884732,476.275392 457.854121,491.037366 C459.159705,493.455744 460.522965,495.726759 461.963527,497.931908 L464.125348,501.11004 L466.822328,504.895748 L465.262697,505.907111 L467.017137,506.521907 C465.908147,509.683247 464.878587,514.064709 464.450696,519.14172 L464.319461,521.077178 C463.849805,530.21993 465.631424,538.861399 470.352398,546.371322 C483.38878,567.124065 505.211499,577.973046 530.61963,570.068688 C559.649743,561.674439 574.979937,524.234371 561.64105,503.590451 L560.91245,502.519686 L560.175311,501.490194 L560.864266,500.427853 C566.478145,491.771471 571.636008,476.281299 571.957117,461.864518 C572.394449,442.229717 564.520623,425.653144 546.20993,413.947954 L544.405275,412.830462 C506.292141,388.388282 459.459916,407.620138 450.360424,445.178755 Z M537.225905,422.083906 L538.730957,422.961 C568.547944,439.415934 570.454239,473.545676 556.686529,497.318423 L555.758157,498.851955 C567.330384,518.095131 553.902656,549.800053 529.051534,557.489242 L527.632758,557.898585 C505.84393,564.32306 486.820968,554.561486 475.794064,536.537526 C471.769065,529.95461 470.231926,522.4618 470.591057,514.601245 C470.773857,510.600177 471.424562,506.901584 472.236691,503.942089 L472.660639,502.504182 L470.390707,499.206301 C468.783012,496.805882 467.312372,494.396503 465.918095,491.790903 C459.214147,479.262687 456.35813,466.211998 459.43946,452.88788 C466.810215,421.012844 505.021291,403.92495 537.225905,422.083906 Z M463.058506,453.724782 C460.209219,466.045514 462.876503,478.233781 469.193225,490.038356 C470.524968,492.527093 471.933233,494.834282 473.476993,497.139242 L476.275381,501.20155 L474.711121,502.211256 L476.469523,502.82844 C475.578906,505.361995 474.753343,508.96779 474.415457,513.012369 L474.301738,514.770778 C473.974098,521.942067 475.362825,528.711439 478.962919,534.599419 C489.183234,551.304976 506.581611,560.232899 526.626964,554.323097 C550.06479,548.045305 563.029518,518.279402 552.644702,500.880379 L552.019581,499.890565 L551.341421,498.874609 L552.005647,497.849489 C566.152331,476.016475 565.579113,443.223988 538.41254,427.059159 L536.875851,426.178395 C506.486351,407.888522 469.979955,423.792777 463.058506,453.724782 Z M531.06372,436.225151 C555.16273,447.69609 558.843616,475.142803 547.730613,494.867861 L546.864423,496.327805 C555.382778,512.301516 544.211951,536.41518 524.833378,541.855381 L523.558039,542.183427 C507.134327,546.56347 492.543536,538.686 484.380604,524.710802 C479.587366,516.515753 479.659214,506.838093 481.984407,499.225515 L482.121528,498.795863 L480.438507,496.248071 C479.305383,494.486577 478.278461,492.755796 477.303668,490.91386 C472.226723,481.320631 470.001287,471.499412 472.132365,461.491528 C477.398918,436.766225 506.259662,422.942555 531.06372,436.225151 Z M475.765439,462.265268 C473.843379,471.29157 475.881194,480.284793 480.586802,489.176354 C481.201132,490.337171 481.839007,491.454056 482.515923,492.567006 L483.819259,494.633476 L485.728413,497.508567 L484.165778,498.515402 L485.922686,499.134005 C485.230408,501.107205 484.615497,503.895958 484.370574,506.92611 L484.280299,508.458645 C484.089535,513.661533 485.089612,518.565646 487.587529,522.836362 C494.974354,535.48284 507.966433,542.497176 522.656306,538.580441 C540.500144,534.405281 551.076661,512.296336 543.648659,498.187604 L543.114179,497.238346 L542.517062,496.244711 L543.147394,495.271807 C554.660426,477.501693 552.330116,451.542849 530.818982,440.254655 L529.388833,439.539503 C506.706514,427.395256 480.521334,439.937389 475.765439,462.265268 Z M523.28327,449.462643 C542.45397,455.918326 547.862305,477.198756 538.105067,493.58453 L537.945758,493.828585 C543.442473,506.503889 534.514464,523.101949 520.576215,526.246928 L519.435293,526.472101 C508.359568,528.776242 498.213427,522.766517 492.943029,512.850357 C490.027034,507.378303 489.94078,500.70993 491.485611,495.406583 L491.588649,495.081311 L491.045532,494.231977 C486.116061,486.296712 483.636597,479.537802 484.578401,471.704154 L484.812666,470.122428 C487.808925,453.064104 506.186089,442.573435 523.28327,449.462643 Z M488.471233,470.764909 C487.180792,478.114816 489.397531,484.52275 494.188552,492.251006 L495.180803,493.814932 L493.620434,494.819547 L495.37409,495.442182 C493.886643,499.665164 493.668781,505.311238 495.673966,509.964117 L496.222127,511.105248 C500.776416,519.674058 509.379718,524.769934 518.746755,522.822578 C530.994162,520.747491 539.135615,506.220736 534.627883,495.509225 L534.183005,494.546414 L533.702519,493.594451 L534.282402,492.699555 C543.763965,478.067268 539.21831,458.748236 521.99669,452.9456 C507.008797,446.909273 491.062503,456.012272 488.471233,470.764909 Z M515.086093,462.679782 L515.900454,462.707823 C529.829592,463.409277 537.355798,477.487928 529.066798,491.294095 L529.010333,491.386 L529.272721,492.459372 C531.086234,501.269447 524.55045,509.954353 516.225562,510.724341 L515.941075,510.747513 L515.027098,510.779656 C506.136945,510.779656 498.86489,501.664286 500.788693,492.424948 L500.788693,492.424948 L501.043306,491.379224 L500.876949,491.108531 C492.96875,477.705717 499.921403,464.103771 513.153027,462.783688 L513.153027,462.783688 L514.183084,462.706578 L515.086093,462.679782 Z M515.086805,466.392148 L514.340565,466.417674 C502.978532,466.989852 497.07083,478.454243 504.631714,490.118444 L504.631714,490.118444 L505.12729,490.882971 L504.826021,491.742816 C502.232151,499.145945 508.051603,507.065104 515.027098,507.065104 C522.006587,507.065104 527.822732,499.147907 525.228174,491.742816 L525.228174,491.742816 L524.926906,490.882971 L526.037761,489.119394 C532.641355,477.808027 526.751893,466.97354 515.743684,466.418943 L515.743684,466.418943 L515.086805,466.392148 Z" id="shape2-line-centre"></path>
                        </g>
                    </g>
                </g>
            </g>
        </g>
    </g>
</svg>